# xmcd
#
# Track frame offsets: 
#        183
#        17183
#        38150
#        53375
#        87460
#        118425
#        150323
#        177080
#        196323
#
# Disc length: 3029 seconds
#
# Revision: 2
# Processed by: cddbd v1.5.2PL0 Copyright (c) Steve Scherf et al.
# Submitted via: ExactAudioCopy v0.99pb5
#
DISCID=6b0bd309
DTITLE=Haffner, Wolfgang and Friends - Last Exit
DYEAR=1993
DGENRE=Jazz
TTITLE0=Rollins' Tones
TTITLE1=Round And Round
TTITLE2=Last Exit
TTITLE3=Dani's Delight
TTITLE4=Sweet and Sentimental
TTITLE5=Ralph's Piano Waltz
TTITLE6=Paul and Paula
TTITLE7=You Never Know
TTITLE8=Another Waltz
EXTD=YEAR: 1993
EXTT0=
EXTT1=
EXTT2=
EXTT3=
EXTT4=
EXTT5=
EXTT6=
EXTT7=
EXTT8=
PLAYORDER=
